<?xml version="1.0" encoding="UTF-8" standalone="no"?>
<!DOCTYPE svg PUBLIC "-//W3C//DTD SVG 1.1//EN" "http://www.w3.org/Graphics/SVG/1.1/DTD/svg11.dtd">
<svg width="100%" height="100%" viewBox="0 0 351 410" version="1.1" xmlns="http://www.w3.org/2000/svg" xmlns:xlink="http://www.w3.org/1999/xlink" xml:space="preserve" xmlns:serif="http://www.serif.com/" style="fill-rule:evenodd;clip-rule:evenodd;stroke-linejoin:round;stroke-miterlimit:2;">
    <g transform="matrix(1,0,0,1,-100,-50)">
        <g transform="matrix(1,0,0,1,-0.00297921,6.81241)">
            <path d="M275.003,369.167C275.003,369.167 325.411,343.875 346.793,321.307C362.815,304.395 368.064,277.169 368.064,277.169L368.064,175.068C368.064,175.068 276.051,127.208 275.003,127.208L181.942,175.068L181.942,277.169C181.942,277.169 187.19,304.395 203.213,321.307C224.595,343.875 275.003,369.167 275.003,369.167ZM213.534,251.478L259.597,296.851L342.441,212.173L324.35,194.409L258.643,261.062L230.301,234.515L213.534,251.478Z" style="fill:white;"/>
        </g>
        <path d="M368.061,181.881L428.9,156.668L275,77.5L121.1,156.706L181.9,181.898L368.061,181.881" style="fill:white;fill-opacity:0.7;"/>
        <path d="M181.939,181.881L121.104,156.7L114.183,153.929L114.183,334.019L275,446.5L275,348.431L197.844,271.793L197.844,190.389L181.939,181.881Z" style="fill:white;fill-opacity:0.3;"/>
        <g transform="matrix(-1,0,0,1,549.73,0)">
            <path d="M181.63,181.881L120.83,156.726L114.183,153.959L114.183,334.019L274.73,446.5L274.73,348.431L197.844,271.793L197.844,190.389L181.63,181.881Z" style="fill:white;fill-opacity:0.5;"/>
        </g>
        <g transform="matrix(1,0,0,1.00049,0,-0.0243078)">
            <path d="M275,459.801L450.006,342.015L450.006,140L275.006,50L275,50L100,140L100,342.015L275,459.801ZM275,432.301L428.858,325.415L428.858,156.614L275.003,77.488L121.148,156.614L121.148,325.415L275,432.301Z" style="fill:white;"/>
        </g>
    </g>
</svg>
